# xmcd
#
# Track frame offsets: 
#        150
#        16177
#        28587
#        41262
#        53278
#        65056
#        77330
#        90767
#        104940
#        116387
#        126924
#        139797
#        151095
#        163687
#        174767
#        190019
#        202969
#        212780
#        222924
#        235456
#        250181
#        263275
#        274196
#        285524
#        296776
#
# Disc length: 4115 seconds
#
# Revision: 0
# Processed by: cddbd v1.5.2PL0 Copyright (c) Steve Scherf et al.
# Submitted via: ExactAudioCopyFreeDBPlugin 1.0
#
DISCID=50101119
DTITLE=Various Artist - Deep Feeling [CD3]
DYEAR=2014
DGENRE=Blues
TTITLE0=Frankie Lee Sims - Walking With Frankie
TTITLE1=Elmore James - The Sky Is Crying
TTITLE2=Jimmy Reed (feat. Eddie Taylor) - I'm Gonna Ruin You
TTITLE3=Chuck Berry - Oh Baby Doll
TTITLE4=Pee Wee Crayton - Huckle Boogie
TTITLE5=Albert King - Blues At Sunrise
TTITLE6=Little Milton - That Will Never Do
TTITLE7=Johnny Fuller - Too Late To Change
TTITLE8=B.B. King - Bye! Bye! Baby
TTITLE9=John Lee Hooker - I'm A Boogie Man
TTITLE10=Freddy King - I Love The Woman
TTITLE11=T-Bone Walker - Everytime
TTITLE12=Guitar Slim - Sum'thin' To Remember You By
TTITLE13=Bo Diddley - I Love You So
TTITLE14=Gene Phillips - Ramblin' Woman
TTITLE15=Otis Rush - Three Times A Fool
TTITLE16=Earl King - Baby You Can Get Your Gun
TTITLE17=John Lee - Blind's Blues
TTITLE18=Eddie Taylor - E.T. Blues
TTITLE19=Jesse Allen - Goodbye Blues
TTITLE20=Blue Charlie - Don't Bring No Friend
TTITLE21=Goree Carter - I'm Your Boogie Man
TTITLE22=Eddie Kirkland - Mistreated Woman
TTITLE23=Leroy Washington - I've Been To This Prison
TTITLE24=Hop Wilson - Be Careful With The Blues
EXTD=
EXTT0=
EXTT1=
EXTT2=
EXTT3=
EXTT4=
EXTT5=
EXTT6=
EXTT7=
EXTT8=
EXTT9=
EXTT10=
EXTT11=
EXTT12=
EXTT13=
EXTT14=
EXTT15=
EXTT16=
EXTT17=
EXTT18=
EXTT19=
EXTT20=
EXTT21=
EXTT22=
EXTT23=
EXTT24=
PLAYORDER=
